<?xml version="1.0" encoding="utf-8"?>
<!-- Generator: Adobe Illustrator 25.0.0, SVG Export Plug-In . SVG Version: 6.00 Build 0)  -->
<svg version="1.1" id="Layer_1" xmlns="http://www.w3.org/2000/svg" xmlns:xlink="http://www.w3.org/1999/xlink" x="0px" y="0px"
	 viewBox="0 0 360 288" style="enable-background:new 0 0 360 288;" xml:space="preserve">
<style type="text/css">
	.st0{fill:#FFFFFF;}
	.st1{fill:none;stroke:#FDD20E;stroke-width:6;stroke-miterlimit:10;}
	.st2{fill:#265698;}
</style>
<g>
	<circle class="st0" cx="179.2" cy="143" r="130.1"/>
	<circle class="st1" cx="179.2" cy="143" r="130.1"/>
</g>
<g id="vaccine">
	<g>
		<g>
			<g>
				<path class="st2" d="M152.9,193.4c-0.2-0.2-0.3-0.5-0.6-0.6c-0.2-0.2-0.5-0.3-0.8-0.4c-0.3-0.1-0.6-0.2-0.9-0.2
					c-0.6,0-1.1,0.1-1.5,0.3c-0.4,0.2-0.7,0.5-1,0.9c-0.2,0.4-0.4,0.8-0.5,1.3c-0.1,0.5-0.2,1-0.2,1.5c0,0.5,0.1,1,0.2,1.4
					c0.1,0.5,0.3,0.9,0.5,1.2c0.2,0.4,0.6,0.7,1,0.9c0.4,0.2,0.9,0.3,1.5,0.3c0.8,0,1.4-0.2,1.8-0.7c0.4-0.5,0.7-1.1,0.8-1.9h2.5
					c-0.1,0.7-0.2,1.4-0.5,2c-0.3,0.6-0.6,1.1-1.1,1.5c-0.4,0.4-1,0.7-1.6,0.9c-0.6,0.2-1.3,0.3-2,0.3c-0.9,0-1.7-0.2-2.4-0.5
					c-0.7-0.3-1.3-0.7-1.8-1.3c-0.5-0.5-0.9-1.2-1.1-1.9c-0.3-0.7-0.4-1.5-0.4-2.4c0-0.9,0.1-1.7,0.4-2.4c0.3-0.7,0.6-1.4,1.1-1.9
					c0.5-0.6,1.1-1,1.8-1.3c0.7-0.3,1.5-0.5,2.4-0.5c0.6,0,1.2,0.1,1.8,0.3c0.6,0.2,1.1,0.5,1.5,0.8c0.5,0.4,0.8,0.8,1.1,1.3
					c0.3,0.5,0.5,1.1,0.6,1.8h-2.5C153.2,193.9,153.1,193.6,152.9,193.4z"/>
				<path class="st2" d="M156.6,193.7c0.3-0.7,0.6-1.4,1.1-1.9c0.5-0.6,1.1-1,1.8-1.3c0.7-0.3,1.5-0.5,2.4-0.5
					c0.9,0,1.7,0.2,2.4,0.5c0.7,0.3,1.3,0.7,1.8,1.3c0.5,0.6,0.9,1.2,1.1,1.9c0.3,0.7,0.4,1.6,0.4,2.4c0,0.8-0.1,1.6-0.4,2.4
					c-0.3,0.7-0.6,1.4-1.1,1.9c-0.5,0.5-1.1,1-1.8,1.3c-0.7,0.3-1.5,0.5-2.4,0.5c-0.9,0-1.7-0.2-2.4-0.5c-0.7-0.3-1.3-0.7-1.8-1.3
					c-0.5-0.5-0.9-1.2-1.1-1.9c-0.3-0.7-0.4-1.5-0.4-2.4C156.2,195.3,156.3,194.5,156.6,193.7z M158.9,197.6
					c0.1,0.5,0.3,0.9,0.5,1.2c0.2,0.4,0.6,0.7,1,0.9c0.4,0.2,0.9,0.3,1.5,0.3c0.6,0,1.1-0.1,1.5-0.3c0.4-0.2,0.7-0.5,1-0.9
					c0.2-0.4,0.4-0.8,0.5-1.2c0.1-0.5,0.2-0.9,0.2-1.4c0-0.5-0.1-1-0.2-1.5c-0.1-0.5-0.3-0.9-0.5-1.3c-0.2-0.4-0.6-0.7-1-0.9
					c-0.4-0.2-0.9-0.3-1.5-0.3c-0.6,0-1.1,0.1-1.5,0.3c-0.4,0.2-0.7,0.5-1,0.9s-0.4,0.8-0.5,1.3c-0.1,0.5-0.2,1-0.2,1.5
					C158.8,196.6,158.8,197.1,158.9,197.6z"/>
				<path class="st2" d="M171.1,201.9l-3.8-11.6h2.6l2.6,8.2h0l2.6-8.2h2.6l-3.9,11.6H171.1z"/>
				<path class="st2" d="M180.6,190.3v11.6H178v-11.6H180.6z"/>
				<path class="st2" d="M187,190.3c0.7,0,1.4,0.1,2.1,0.4c0.6,0.2,1.2,0.6,1.7,1.1c0.5,0.5,0.8,1.1,1.1,1.8
					c0.3,0.7,0.4,1.6,0.4,2.5c0,0.8-0.1,1.6-0.3,2.3c-0.2,0.7-0.5,1.3-1,1.9s-1,0.9-1.6,1.2c-0.7,0.3-1.4,0.4-2.3,0.4h-5v-11.6H187z
					 M186.8,199.8c0.4,0,0.7-0.1,1.1-0.2c0.3-0.1,0.7-0.3,0.9-0.6c0.3-0.3,0.5-0.6,0.7-1.1c0.2-0.4,0.2-1,0.2-1.6
					c0-0.6-0.1-1.1-0.2-1.6c-0.1-0.5-0.3-0.9-0.6-1.2c-0.3-0.3-0.6-0.6-1-0.8c-0.4-0.2-1-0.3-1.6-0.3h-1.8v7.3H186.8z"/>
				<path class="st2" d="M197.9,196.5v2H193v-2H197.9z"/>
				<path class="st2" d="M202,201.9v-7.4h-2.9v-1.7c0.4,0,0.8,0,1.2-0.1c0.4-0.1,0.7-0.2,1-0.4c0.3-0.2,0.6-0.4,0.8-0.7
					s0.3-0.7,0.4-1.1h1.8v11.4H202z"/>
				<path class="st2" d="M209.5,200c0.3,0.3,0.6,0.4,1,0.4c0.4,0,0.8-0.1,1-0.4c0.3-0.2,0.5-0.5,0.7-0.9c0.2-0.4,0.3-0.7,0.4-1.1
					c0.1-0.4,0.1-0.8,0.1-1.1l0,0c-0.3,0.5-0.7,0.8-1.1,1c-0.4,0.2-0.9,0.3-1.5,0.3c-0.5,0-1-0.1-1.4-0.3s-0.9-0.5-1.2-0.9
					c-0.3-0.3-0.5-0.7-0.7-1.2c-0.1-0.4-0.2-0.9-0.2-1.4c0-0.6,0.1-1.1,0.3-1.6c0.2-0.5,0.5-0.9,0.8-1.3c0.4-0.4,0.8-0.7,1.3-0.9
					c0.5-0.2,1-0.3,1.6-0.3c0.9,0,1.6,0.2,2.1,0.5c0.6,0.3,1,0.8,1.3,1.4c0.3,0.6,0.6,1.2,0.7,1.9c0.1,0.7,0.2,1.4,0.2,2.1
					c0,0.7-0.1,1.4-0.2,2.1c-0.2,0.7-0.4,1.3-0.8,1.9c-0.4,0.6-0.8,1-1.4,1.4c-0.6,0.4-1.3,0.5-2.1,0.5c-0.5,0-0.9-0.1-1.4-0.2
					c-0.4-0.1-0.8-0.3-1.1-0.6c-0.3-0.3-0.6-0.6-0.8-1c-0.2-0.4-0.3-0.8-0.4-1.3h2.2C209,199.4,209.2,199.7,209.5,200z M211.4,196.3
					c0.2-0.1,0.4-0.3,0.6-0.5c0.2-0.2,0.3-0.4,0.3-0.7c0.1-0.3,0.1-0.5,0.1-0.8c0-0.3,0-0.5-0.1-0.8c-0.1-0.3-0.2-0.5-0.4-0.7
					c-0.2-0.2-0.3-0.4-0.6-0.5c-0.2-0.1-0.5-0.2-0.8-0.2c-0.3,0-0.5,0.1-0.7,0.2c-0.2,0.1-0.4,0.3-0.6,0.5c-0.2,0.2-0.3,0.4-0.3,0.7
					c-0.1,0.2-0.1,0.5-0.1,0.8c0,0.3,0,0.5,0.1,0.8c0.1,0.3,0.2,0.5,0.3,0.7c0.1,0.2,0.3,0.4,0.5,0.5c0.2,0.1,0.5,0.2,0.8,0.2
					C210.9,196.4,211.2,196.4,211.4,196.3z"/>
			</g>
		</g>
		<g>
			<g>
				<path class="st2" d="M96.8,174.9l-13.2-40.7h9.2l9.1,28.6h0.1l9.2-28.6h9.2l-13.5,40.7H96.8z"/>
				<path class="st2" d="M116.8,154.5c0.1-1.9,0.6-3.5,1.4-4.7c0.8-1.3,1.9-2.3,3.2-3c1.3-0.8,2.7-1.3,4.4-1.6
					c1.6-0.3,3.2-0.5,4.9-0.5c1.5,0,3,0.1,4.5,0.3c1.5,0.2,2.9,0.6,4.2,1.2c1.3,0.6,2.3,1.5,3.1,2.5c0.8,1.1,1.2,2.5,1.2,4.3v15.3
					c0,1.3,0.1,2.6,0.2,3.8c0.2,1.2,0.4,2.1,0.8,2.7h-8.2c-0.2-0.5-0.3-0.9-0.4-1.4c-0.1-0.5-0.2-1-0.2-1.5
					c-1.3,1.3-2.8,2.3-4.6,2.8c-1.7,0.5-3.5,0.8-5.4,0.8c-1.4,0-2.7-0.2-3.9-0.5c-1.2-0.3-2.3-0.9-3.2-1.6c-0.9-0.7-1.6-1.6-2.1-2.7
					c-0.5-1.1-0.8-2.4-0.8-3.9c0-1.7,0.3-3.1,0.9-4.1c0.6-1.1,1.3-1.9,2.3-2.6c0.9-0.6,2-1.1,3.2-1.5c1.2-0.3,2.4-0.6,3.6-0.8
					c1.2-0.2,2.4-0.3,3.6-0.5c1.2-0.1,2.2-0.3,3.1-0.5c0.9-0.2,1.6-0.6,2.2-1c0.5-0.4,0.8-1.1,0.7-1.9c0-0.9-0.1-1.6-0.4-2.1
					c-0.3-0.5-0.7-0.9-1.1-1.2c-0.5-0.3-1-0.5-1.7-0.6c-0.6-0.1-1.3-0.1-2-0.1c-1.6,0-2.9,0.3-3.8,1c-0.9,0.7-1.4,1.8-1.6,3.4H116.8
					z M135.5,160.5c-0.3,0.3-0.8,0.5-1.3,0.7c-0.5,0.2-1.1,0.3-1.7,0.4c-0.6,0.1-1.2,0.2-1.9,0.3c-0.6,0.1-1.3,0.2-1.9,0.3
					c-0.6,0.1-1.2,0.3-1.8,0.5c-0.6,0.2-1.1,0.4-1.5,0.8c-0.4,0.3-0.8,0.7-1.1,1.2c-0.3,0.5-0.4,1.1-0.4,1.9c0,0.7,0.1,1.3,0.4,1.8
					c0.3,0.5,0.6,0.9,1.1,1.2c0.5,0.3,1,0.5,1.6,0.6c0.6,0.1,1.2,0.2,1.9,0.2c1.6,0,2.8-0.3,3.7-0.8c0.9-0.5,1.5-1.2,1.9-1.9
					c0.4-0.7,0.7-1.5,0.8-2.3c0.1-0.8,0.1-1.4,0.1-1.8V160.5z"/>
				<path class="st2" d="M161.1,150.7c-1.3,0-2.4,0.3-3.3,0.9c-0.9,0.6-1.6,1.4-2.1,2.3c-0.6,0.9-0.9,2-1.2,3.1
					c-0.2,1.1-0.3,2.2-0.3,3.3c0,1.1,0.1,2.1,0.3,3.3c0.2,1.1,0.6,2.1,1.1,3c0.5,0.9,1.2,1.6,2.1,2.2c0.9,0.6,1.9,0.9,3.2,0.9
					c1.9,0,3.4-0.5,4.5-1.6c1-1.1,1.7-2.5,2-4.4h7.8c-0.5,3.9-2.1,6.9-4.6,9c-2.5,2.1-5.7,3.1-9.6,3.1c-2.2,0-4.2-0.4-6.1-1.1
					c-1.8-0.7-3.4-1.8-4.7-3.1c-1.3-1.3-2.3-2.9-3-4.8c-0.7-1.8-1.1-3.9-1.1-6.1c0-2.3,0.3-4.4,1-6.4c0.7-2,1.6-3.7,2.9-5.1
					c1.3-1.4,2.9-2.5,4.7-3.3c1.9-0.8,4-1.2,6.4-1.2c1.7,0,3.4,0.2,5,0.7c1.6,0.5,3.1,1.2,4.3,2.1c1.3,0.9,2.3,2.1,3.1,3.5
					c0.8,1.4,1.3,3,1.4,4.9h-7.9C166.5,152.4,164.5,150.7,161.1,150.7z"/>
				<path class="st2" d="M191,150.7c-1.3,0-2.4,0.3-3.3,0.9c-0.9,0.6-1.6,1.4-2.1,2.3c-0.6,0.9-0.9,2-1.2,3.1
					c-0.2,1.1-0.3,2.2-0.3,3.3c0,1.1,0.1,2.1,0.3,3.3c0.2,1.1,0.6,2.1,1.1,3c0.5,0.9,1.2,1.6,2.1,2.2c0.9,0.6,1.9,0.9,3.2,0.9
					c1.9,0,3.4-0.5,4.5-1.6c1-1.1,1.7-2.5,2-4.4h7.8c-0.5,3.9-2.1,6.9-4.6,9c-2.5,2.1-5.7,3.1-9.6,3.1c-2.2,0-4.2-0.4-6.1-1.1
					c-1.8-0.7-3.4-1.8-4.7-3.1c-1.3-1.3-2.3-2.9-3-4.8c-0.7-1.8-1.1-3.9-1.1-6.1c0-2.3,0.3-4.4,1-6.4c0.7-2,1.6-3.7,2.9-5.1
					c1.3-1.4,2.9-2.5,4.7-3.3c1.9-0.8,4-1.2,6.4-1.2c1.7,0,3.4,0.2,5,0.7c1.6,0.5,3.1,1.2,4.3,2.1c1.3,0.9,2.3,2.1,3.1,3.5
					c0.8,1.4,1.3,3,1.4,4.9H197C196.4,152.4,194.4,150.7,191,150.7z"/>
				<path class="st2" d="M207,140.9v-6.7h8.1v6.7H207z M215.1,145.4v29.5H207v-29.5H215.1z"/>
				<path class="st2" d="M226.3,145.4v4.1h0.2c1-1.7,2.4-3,4-3.7c1.6-0.8,3.3-1.2,5-1.2c2.2,0,3.9,0.3,5.3,0.9
					c1.4,0.6,2.5,1.4,3.3,2.5c0.8,1,1.4,2.3,1.7,3.8c0.3,1.5,0.5,3.2,0.5,5v18.1h-8.1v-16.7c0-2.4-0.4-4.2-1.1-5.4
					c-0.8-1.2-2.1-1.8-4.1-1.8c-2.2,0-3.8,0.7-4.8,2c-1,1.3-1.5,3.5-1.5,6.5v15.5h-8.1v-29.5H226.3z"/>
				<path class="st2" d="M258.3,167.9c1.2,1.2,3,1.8,5.2,1.8c1.6,0,3-0.4,4.2-1.2c1.2-0.8,1.9-1.7,2.2-2.6h7.1
					c-1.1,3.5-2.9,6.1-5.2,7.6c-2.4,1.5-5.2,2.3-8.6,2.3c-2.3,0-4.4-0.4-6.3-1.1c-1.9-0.7-3.4-1.8-4.7-3.2c-1.3-1.4-2.3-3-3-4.9
					c-0.7-1.9-1.1-4-1.1-6.3c0-2.2,0.4-4.3,1.1-6.2c0.7-1.9,1.7-3.5,3.1-4.9c1.3-1.4,2.9-2.5,4.8-3.3c1.8-0.8,3.9-1.2,6.1-1.2
					c2.5,0,4.7,0.5,6.6,1.5c1.9,1,3.4,2.3,4.6,3.9c1.2,1.6,2.1,3.5,2.6,5.6c0.5,2.1,0.7,4.3,0.6,6.6h-21.3
					C256.4,164.8,257.1,166.7,258.3,167.9z M267.4,152.3c-1-1.1-2.4-1.6-4.4-1.6c-1.3,0-2.4,0.2-3.2,0.7c-0.9,0.4-1.5,1-2.1,1.6
					c-0.5,0.6-0.9,1.3-1.1,2.1c-0.2,0.7-0.3,1.4-0.4,1.9h13.2C269.1,155,268.4,153.4,267.4,152.3z"/>
			</g>
		</g>
		<g>
			<path class="st2" d="M219,181.8v50.6c0,7-5.7,12.7-12.7,12.7h-54c-7,0-12.7-5.7-12.7-12.7v-50.6h-7v50.6
				c0,10.9,8.9,19.8,19.8,19.8h54c10.9,0,19.8-8.9,19.8-19.8v-50.6H219z"/>
			<path class="st2" d="M220.9,100.5l-5.2-7.2c-0.1-0.1-0.1-0.2-0.2-0.3c-2.2-2.4-3.4-5.6-3.4-8.9l-0.1-9.7
				c4.9-0.9,8.6-5.1,8.6-10.2V45.7c0-5.7-4.7-10.4-10.4-10.4h-62c-5.7,0-10.4,4.7-10.4,10.4v18.6c0,5.1,3.8,9.4,8.7,10.2l-0.1,9.7
				c0,3.3-1.3,6.4-3.4,8.9c-0.1,0.1-0.2,0.2-0.2,0.3l-5.2,7.2c-3.3,3.8-5.1,8.6-5.1,13.6v24.1h7v-14.8H219v14.8h7v-24.1
				C226,109.1,224.2,104.3,220.9,100.5z M144.9,64.3V45.7c0-1.8,1.5-3.3,3.3-3.3h62c1.8,0,3.3,1.5,3.3,3.3v18.6
				c0,1.8-1.5,3.3-3.3,3.3h-62C146.4,67.6,144.9,66.1,144.9,64.3z M219,116.4h-79.4v-2.2c0-3.3,1.2-6.6,3.4-9.1
				c0.1-0.1,0.2-0.2,0.2-0.3l5.2-7.2c3.2-3.7,5-8.4,5.1-13.3l0.1-9.6h2.7l1.7,7.4c0.4,1.8,2.6,3.2,5.1,3.2h32.6
				c2.5,0,4.7-1.3,5.1-3.2l1.7-7.4h2.7l0.1,9.6c0.1,4.9,1.9,9.6,5.1,13.3l5.2,7.2c0.1,0.1,0.1,0.2,0.2,0.3c2.2,2.5,3.4,5.7,3.4,9.1
				V116.4z"/>
		</g>
	</g>
</g>
</svg>
